<svg xmlns="http://www.w3.org/2000/svg" width="26" height="26"><g transform="translate(0 -1026.362)"><circle cx="13" cy="1039.362" r="13" fill="#239fdb" fill-rule="evenodd"/><path fill="#0b5ecd" style="line-height:normal;text-indent:0;text-align:start;text-decoration-line:none;text-decoration-style:solid;text-decoration-color:#000;text-transform:none;block-progression:tb;isolation:auto;mix-blend-mode:normal" d="M14.105 25.943a13 13 0 0 0 1.104-.132 13 13 0 0 0 1.268-.286 13 13 0 0 0 1.234-.408 13 13 0 0 0 1.185-.531 13 13 0 0 0 1.127-.647 13 13 0 0 0 1.057-.755 13 13 0 0 0 .977-.858 13 13 0 0 0 .886-.951 13 13 0 0 0 .786-1.035 13 13 0 0 0 .68-1.108 13 13 0 0 0 .566-1.17 13 13 0 0 0 .24-.656L14.412 6.604a2.008 2.008 0 0 0-1.01-.547H13.4c-.064-.014-.132-.015-.199-.022-.066-.007-.131-.02-.199-.02H13v-.001c-1.099 0-2 .901-2 2 0 .128.015.253.04.375.006.034.016.067.024.101a1.95 1.95 0 0 0 .319.682c.046.064.097.124.15.182.018.019.032.041.051.06l.064.063.852.853v1.676h-5v3.078a2.006 2.006 0 0 0-1.5 1.93c0 .549.225 1.05.588 1.412l7.517 7.517z" color="#000" font-family="sans-serif" font-weight="400" transform="translate(0 1026.362)"/><path fill="#fff" style="line-height:normal;text-indent:0;text-align:start;text-decoration-line:none;text-decoration-style:solid;text-decoration-color:#000;text-transform:none;block-progression:tb;isolation:auto;mix-blend-mode:normal" d="M8 2c-1.099 0-2 .901-2 2 0 .925.642 1.703 1.5 1.928v2.064h-5v3.078A2.006 2.006 0 0 0 1 13c0 1.099.901 2 2 2s2-.901 2-2c0-.925-.642-1.705-1.5-1.93V8.992H8V9h4.5v2.07A2.006 2.006 0 0 0 11 13c0 1.099.901 2 2 2s2-.901 2-2c0-.925-.642-1.705-1.5-1.93V8h-5V5.928A2.003 2.003 0 0 0 10 4c0-1.099-.901-2-2-2Zm0 1c.558 0 1 .442 1 1s-.442 1-1 1-1-.442-1-1 .442-1 1-1Zm-5 9c.558 0 1 .442 1 1s-.442 1-1 1-1-.442-1-1 .442-1 1-1zm10 0c.558 0 1 .442 1 1s-.442 1-1 1-1-.442-1-1 .442-1 1-1z" color="#000" font-family="sans-serif" font-weight="400" overflow="visible" transform="translate(5 1030.376)"/></g></svg>